<svg width="512" height="512" viewBox="0 0 512 512" fill="none" xmlns="http://www.w3.org/2000/svg">
  <defs>
    <linearGradient id="bg" x1="64" y1="48" x2="448" y2="464" gradientUnits="userSpaceOnUse">
      <stop stop-color="#0EA5E9"/>
      <stop offset="1" stop-color="#2563EB"/>
    </linearGradient>
    <linearGradient id="paper" x1="150" y1="120" x2="350" y2="392" gradientUnits="userSpaceOnUse">
      <stop stop-color="#FFFFFF"/>
      <stop offset="1" stop-color="#EAF2FF"/>
    </linearGradient>
  </defs>

  <rect x="48" y="48" width="416" height="416" rx="96" fill="url(#bg)"/>
  <rect x="150" y="110" width="212" height="292" rx="22" fill="url(#paper)"/>
  <rect x="176" y="154" width="160" height="14" rx="7" fill="#93C5FD"/>
  <rect x="176" y="190" width="160" height="14" rx="7" fill="#93C5FD"/>
  <rect x="176" y="226" width="116" height="14" rx="7" fill="#93C5FD"/>
  <rect x="176" y="278" width="26" height="26" rx="6" fill="#22C55E"/>
  <path d="M183 291L190 298L201 285" stroke="white" stroke-width="4" stroke-linecap="round" stroke-linejoin="round"/>
  <rect x="216" y="284" width="120" height="14" rx="7" fill="#60A5FA"/>
  <rect x="176" y="324" width="26" height="26" rx="6" fill="#F59E0B"/>
  <rect x="216" y="330" width="120" height="14" rx="7" fill="#60A5FA"/>
</svg>
